<mxfile host="f4e0a5c9-1765-4a64-a64a-10ac71799d9a" modified="2020-08-31T06:42:21.916Z" agent="5.0 (Windows NT 6.1; Win64; x64) AppleWebKit/537.36 (KHTML, like Gecko) Code/1.47.3 Chrome/78.0.3904.130 Electron/7.3.2 Safari/537.36" etag="7RrklElHjPTwV_rNiP3S" version="13.1.3">
    <diagram id="6hGFLwfOUW9BJ-s0fimq" name="Page-1">
        <mxGraphModel dx="822" dy="480" grid="1" gridSize="10" guides="1" tooltips="1" connect="1" arrows="1" fold="1" page="1" pageScale="1" pageWidth="827" pageHeight="1169" math="0" shadow="0">
            <root>
                <mxCell id="0"/>
                <mxCell id="1" parent="0"/>
                <mxCell id="2" value="&lt;table cellpadding=&quot;4&quot; cellspacing=&quot;0&quot; border=&quot;1&quot; style=&quot;font-size: 1em ; width: 100% ; height: 100%&quot;&gt;&lt;tbody&gt;&lt;tr&gt;&lt;td&gt;&lt;ol&gt;&lt;li&gt;朝为田舍郎，暮登天子堂&lt;/li&gt;&lt;li&gt;高筑墙，广积粮，缓称王&lt;/li&gt;&lt;li&gt;伺机而动&lt;/li&gt;&lt;li&gt;合纵连横&lt;/li&gt;&lt;li&gt;广交友，不树敌&lt;/li&gt;&lt;li&gt;韬光养晦，奋发有为，积极进取，咄咄逼人，怒目圆睁，自欺欺人&lt;/li&gt;&lt;li&gt;2012-11X&lt;/li&gt;&lt;li&gt;Occam’s Razor: 奥卡姆剃刀定律, 简单有效原理,&amp;nbsp;如无必要，勿增实体&lt;br&gt;&lt;/li&gt;&lt;/ol&gt;&lt;/td&gt;&lt;/tr&gt;&lt;/tbody&gt;&lt;/table&gt; " style="verticalAlign=top;align=left;overflow=fill;fontSize=12;fontFamily=Helvetica;html=1" parent="1" vertex="1">
                    <mxGeometry x="20" y="10" width="420" height="160" as="geometry"/>
                </mxCell>
            </root>
        </mxGraphModel>
    </diagram>
</mxfile>